<svg version="1.1" id="Layer_1" xmlns="http://www.w3.org/2000/svg" xmlns:xlink="http://www.w3.org/1999/xlink" x="0px" y="0px"
	 width="100%" viewBox="0 0 400 200" enable-background="new 0 0 400 200" xml:space="preserve">
<path fill="#FFFFFF" opacity="1.000000" stroke="none" 
	d="
M305.000000,201.000000 
	C203.375488,201.000000 102.250969,201.000000 1.063225,201.000000 
	C1.063225,134.403305 1.063225,67.806541 1.063225,1.104888 
	C134.333298,1.104888 267.666626,1.104888 400.979980,1.104888 
	C400.979980,67.748909 400.979980,134.374466 400.979980,201.000000 
	C369.139984,201.000000 337.319977,201.000000 305.000000,201.000000 
M53.000000,77.500000 
	C53.000000,111.253517 53.000000,145.007034 53.000000,178.758896 
	C151.930542,178.758896 250.309814,178.758896 348.999908,178.758896 
	C348.999908,177.568573 348.999939,176.596298 348.999939,175.624023 
	C348.999969,146.134995 348.999969,116.645958 349.000000,87.156921 
	C349.000031,68.163986 348.957672,49.170864 349.037445,30.178263 
	C349.052490,26.589781 348.487549,23.959124 344.080963,23.924036 
	C342.180542,23.908903 340.284760,23.041643 338.386627,23.040703 
	C244.754807,22.994249 151.122955,22.998966 57.491100,23.009638 
	C56.056427,23.009800 54.621765,23.154575 53.000000,23.241941 
	C53.000000,41.221493 53.000000,58.860748 53.000000,77.500000 
z"/>
<path fill="#000000" opacity="1.000000" stroke="none" 
	d="
M53.000000,77.000000 
	C53.000000,58.860748 53.000000,41.221493 53.000000,23.241941 
	C54.621765,23.154575 56.056427,23.009800 57.491100,23.009638 
	C151.122955,22.998966 244.754807,22.994249 338.386627,23.040703 
	C340.284760,23.041643 342.180542,23.908903 344.080963,23.924036 
	C348.487549,23.959124 349.052490,26.589781 349.037445,30.178263 
	C348.957672,49.170864 349.000031,68.163986 349.000000,87.156921 
	C348.999969,116.645958 348.999969,146.134995 348.999939,175.624023 
	C348.999939,176.596298 348.999908,177.568573 348.999908,178.758896 
	C250.309814,178.758896 151.930542,178.758896 53.000000,178.758896 
	C53.000000,145.007034 53.000000,111.253517 53.000000,77.000000 
z"/>
</svg>